<svg version="1.1" id="Capa_1" xmlns="http://www.w3.org/2000/svg" xmlns:xlink="http://www.w3.org/1999/xlink" x="0px" y="0px"
	 viewBox="0 0 212.85 221.2" style="enable-background:new 0 0 212.85 221.2;" xml:space="preserve">
<style type="text/css">
	.st0{fill:#414042;}
	.st1{fill:#FFFFFF;}
</style>
<rect x="-948.33" y="810.53" class="st0" height="20"/>
<rect x="-1714.58" y="810.53" class="st0" height="20"/>
<g>
	<g>
		<path d="M-769.43,97.51h-14.44c-1.74-2.32-3.78-4.06-6.13-5.21c-2.35-1.16-5.02-1.74-8.03-1.74c-5.1,0-9.44,1.88-13.02,5.63
			c-3.57,3.75-5.36,8.29-5.36,13.62c0,5.38,1.8,9.93,5.4,13.66c3.6,3.73,7.98,5.59,13.14,5.59c2.81,0,5.41-0.57,7.78-1.7
			c2.37-1.13,4.3-2.72,5.79-4.76h14.32c-2.79,6.15-6.51,10.78-11.17,13.87c-4.66,3.09-10.26,4.63-16.8,4.63
			c-8.64,0-15.89-3.04-21.77-9.13s-8.82-13.61-8.82-22.58c0-4.19,0.8-8.18,2.4-11.96c1.6-3.78,3.93-7.2,6.99-10.26
			c2.9-2.87,6.13-5.04,9.71-6.52c3.57-1.48,7.43-2.21,11.57-2.21c6.57,0,12.19,1.57,16.87,4.7
			C-776.32,86.25-772.47,91.05-769.43,97.51z"/>
		<path d="M-760.5,139.89V79.63h11.71v60.26H-760.5z"/>
		<path d="M-723.7,139.89h-11.55V79.63h11.13l25,38.49V79.63h11.51v60.26h-10.93l-25.17-39.65V139.89z"/>
		<path d="M-644.64,139.89h-32.45V79.63h32.45v10.6h-20.74v13.74h20.74v10.43h-20.74v14.9h20.74V139.89z"/>
	</g>
	<g>
		<g>
			<path d="M-539.9,136.24h-30.5V75.98h11.71v49.67h18.79V136.24z"/>
			<path d="M-536.1,75.98h11.8v34.77v0.66c0,5.05,0.59,8.62,1.76,10.7s3.12,3.12,5.86,3.12c2.79,0,4.76-1.06,5.92-3.17
				c1.16-2.11,1.74-5.88,1.74-11.32V75.98h11.75v38.24c0,4.36-0.24,7.58-0.7,9.66c-0.47,2.08-1.24,3.91-2.32,5.48
				c-1.93,2.79-4.2,4.83-6.81,6.12c-2.61,1.3-5.8,1.95-9.58,1.95c-3.72,0-6.91-0.65-9.54-1.95c-2.63-1.3-4.9-3.34-6.81-6.12
				c-1.08-1.57-1.86-3.34-2.34-5.3c-0.48-1.96-0.72-4.97-0.72-9.02v-0.83V75.98z"/>
			<path d="M-487.06,136.24V75.98h8.98h6.42c5.41,0,9.79,1.5,13.14,4.49c3.35,2.99,5.03,6.86,5.03,11.61c0,2.81-0.53,5.21-1.59,7.2
				c-1.06,1.99-2.6,3.49-4.62,4.51c2.92,0.83,5.25,2.52,6.97,5.07c1.72,2.55,2.59,5.55,2.59,9c0,3.15-0.63,6.03-1.88,8.65
				c-1.26,2.62-3.03,4.73-5.32,6.33c-1.74,1.21-3.66,2.08-5.77,2.61c-2.11,0.52-5.07,0.79-8.88,0.79H-487.06z M-475.72,100.23h1.37
				c3.31,0,5.75-0.6,7.3-1.8c1.56-1.2,2.34-3.07,2.34-5.61c0-2.07-0.77-3.63-2.32-4.68c-1.55-1.05-3.85-1.57-6.91-1.57h-1.78V100.23
				z M-475.72,125.64h3.56c3.56,0,6.19-0.6,7.88-1.8s2.55-3.06,2.55-5.57c0-2.7-0.89-4.77-2.67-6.19c-1.78-1.42-4.37-2.13-7.76-2.13
				h-3.56V125.64z"/>
		</g>
		<g>
			<path d="M-596,79.17l-10.21,10.21c-2.87-0.41-5.54-0.19-8.02,0.64s-4.78,2.32-6.91,4.45c-3.61,3.61-5.35,8-5.22,13.18
				c0.13,5.18,2.07,9.65,5.84,13.42c3.8,3.8,8.3,5.75,13.48,5.84c5.18,0.09,9.59-1.69,13.24-5.34c1.99-1.99,3.42-4.22,4.3-6.7
				c0.88-2.48,1.12-4.97,0.73-7.46l10.13-10.13c2.38,6.32,3.02,12.23,1.9,17.71s-3.98,10.54-8.6,15.16
				c-6.11,6.11-13.39,9.09-21.85,8.94c-8.46-0.15-15.86-3.39-22.2-9.73c-2.97-2.97-5.22-6.35-6.76-10.16
				c-1.54-3.8-2.31-7.87-2.31-12.21c0.02-4.08,0.77-7.9,2.25-11.47c1.48-3.57,3.69-6.82,6.61-9.75c4.64-4.64,9.73-7.51,15.25-8.6
				C-608.83,76.08-602.71,76.75-596,79.17z"/>
		</g>
	</g>
	<g>
		<path d="M-821.27,146.26h2.25l7.21,18.72h-1.98l-2.21-5.87h-8.34l-2.24,5.87h-1.93L-821.27,146.26z M-820.19,148.02l-3.52,9.4
			h7.08L-820.19,148.02z"/>
		<path d="M-808.52,146.26h1.85v16.9h6.58v1.81h-8.43V146.26z"/>
		<path d="M-796.35,146.26h2.71l6.47,16.27l6.48-16.27h2.69v18.72h-1.76v-16.53l-6.58,16.53h-1.63l-6.58-16.53v16.53h-1.79V146.26z"
			/>
		<path d="M-773.69,146.26h9.74v1.79h-7.91v6.63h7.88v1.79h-7.88v6.72h7.88v1.79h-9.72V146.26z"/>
		<path d="M-760.28,146.26h5.03c2.22,0,3.93,0.51,5.14,1.52c1.21,1.01,1.81,2.44,1.81,4.29c0,1.52-0.43,2.8-1.29,3.85
			c-0.86,1.05-1.95,1.63-3.28,1.74l4.59,7.31h-2.24l-5.53-9.02h1.76c1.18,0,2.14-0.35,2.89-1.04c0.74-0.69,1.11-1.59,1.11-2.67
			c0-1.47-0.42-2.52-1.25-3.17s-2.24-0.97-4.23-0.97h-2.69v16.88h-1.84V146.26z"/>
		<path d="M-743.02,139.95h1.95l-3.48,4.5h-1.18L-743.02,139.95z M-745.06,146.26h1.84v18.72h-1.84V146.26z"/>
		<path d="M-733.33,146.26h2.25l7.21,18.72h-1.98l-2.21-5.87h-8.34l-2.24,5.87h-1.93L-733.33,146.26z M-732.25,148.02l-3.52,9.4
			h7.08L-732.25,148.02z"/>
	</g>
</g>
<g>
	<g>
		<path class="st1" d="M-778.43,1228.93h-14.44c-1.74-2.32-3.78-4.06-6.13-5.21c-2.35-1.16-5.02-1.74-8.03-1.74
			c-5.1,0-9.44,1.88-13.02,5.63c-3.57,3.75-5.36,8.29-5.36,13.62c0,5.38,1.8,9.93,5.4,13.66c3.6,3.73,7.98,5.59,13.14,5.59
			c2.81,0,5.41-0.57,7.78-1.7c2.37-1.13,4.3-2.72,5.79-4.76h14.32c-2.79,6.15-6.51,10.78-11.17,13.87
			c-4.66,3.09-10.26,4.63-16.8,4.63c-8.64,0-15.89-3.04-21.77-9.13s-8.82-13.61-8.82-22.58c0-4.19,0.8-8.18,2.4-11.96
			c1.6-3.78,3.93-7.2,6.99-10.26c2.9-2.87,6.13-5.04,9.71-6.52c3.57-1.48,7.43-2.21,11.57-2.21c6.57,0,12.19,1.57,16.87,4.7
			C-785.32,1217.68-781.47,1222.48-778.43,1228.93z"/>
		<path class="st1" d="M-769.5,1271.32v-60.26h11.71v60.26H-769.5z"/>
		<path class="st1" d="M-732.7,1271.32h-11.55v-60.26h11.13l25,38.49v-38.49h11.51v60.26h-10.93l-25.17-39.65V1271.32z"/>
		<path class="st1" d="M-653.64,1271.32h-32.45v-60.26h32.45v10.6h-20.74v13.74h20.74v10.43h-20.74v14.9h20.74V1271.32z"/>
	</g>
	<g>
		<g>
			<path class="st1" d="M-548.9,1267.66h-30.5v-60.26h11.71v49.67h18.79V1267.66z"/>
			<path class="st1" d="M-545.1,1207.4h11.8v34.77v0.66c0,5.05,0.59,8.62,1.76,10.7s3.12,3.12,5.86,3.12c2.79,0,4.76-1.06,5.92-3.17
				c1.16-2.11,1.74-5.88,1.74-11.32v-34.77h11.75v38.24c0,4.36-0.24,7.58-0.7,9.66c-0.47,2.08-1.24,3.91-2.32,5.48
				c-1.93,2.79-4.2,4.83-6.81,6.12c-2.61,1.3-5.8,1.95-9.58,1.95c-3.72,0-6.91-0.65-9.54-1.95c-2.63-1.3-4.9-3.34-6.81-6.12
				c-1.08-1.57-1.86-3.34-2.34-5.3c-0.48-1.96-0.72-4.97-0.72-9.02v-0.83V1207.4z"/>
			<path class="st1" d="M-496.06,1267.66v-60.26h8.98h6.42c5.41,0,9.79,1.5,13.14,4.49c3.35,2.99,5.03,6.86,5.03,11.61
				c0,2.81-0.53,5.21-1.59,7.2c-1.06,1.99-2.6,3.49-4.62,4.51c2.92,0.83,5.25,2.52,6.97,5.07c1.72,2.55,2.59,5.55,2.59,9
				c0,3.15-0.63,6.03-1.88,8.65c-1.26,2.62-3.03,4.73-5.32,6.33c-1.74,1.21-3.66,2.08-5.77,2.61c-2.11,0.52-5.07,0.79-8.88,0.79
				H-496.06z M-484.72,1231.66h1.37c3.31,0,5.75-0.6,7.3-1.8c1.56-1.2,2.34-3.07,2.34-5.61c0-2.07-0.77-3.63-2.32-4.68
				c-1.55-1.05-3.85-1.57-6.91-1.57h-1.78V1231.66z M-484.72,1257.07h3.56c3.56,0,6.19-0.6,7.88-1.8s2.55-3.06,2.55-5.57
				c0-2.7-0.89-4.77-2.67-6.19c-1.78-1.42-4.37-2.13-7.76-2.13h-3.56V1257.07z"/>
		</g>
		<g>
			<path class="st1" d="M-605,1210.6l-10.21,10.21c-2.87-0.41-5.54-0.19-8.02,0.64s-4.78,2.32-6.91,4.45
				c-3.61,3.61-5.35,8-5.22,13.18c0.13,5.18,2.07,9.65,5.84,13.42c3.8,3.8,8.3,5.75,13.48,5.84c5.18,0.09,9.59-1.69,13.24-5.34
				c1.99-1.99,3.42-4.22,4.3-6.7c0.88-2.48,1.12-4.97,0.73-7.46l10.13-10.13c2.38,6.32,3.02,12.23,1.9,17.71s-3.98,10.54-8.6,15.16
				c-6.11,6.11-13.39,9.09-21.85,8.94c-8.46-0.15-15.86-3.39-22.2-9.73c-2.97-2.97-5.22-6.35-6.76-10.16
				c-1.54-3.8-2.31-7.87-2.31-12.21c0.02-4.08,0.77-7.9,2.25-11.47c1.48-3.57,3.69-6.82,6.61-9.75c4.64-4.64,9.73-7.51,15.25-8.6
				C-617.83,1207.51-611.71,1208.18-605,1210.6z"/>
		</g>
	</g>
	<g>
		<path class="st1" d="M-830.27,1277.69h2.25l7.21,18.72h-1.98l-2.21-5.87h-8.34l-2.24,5.87h-1.93L-830.27,1277.69z
			 M-829.19,1279.45l-3.52,9.4h7.08L-829.19,1279.45z"/>
		<path class="st1" d="M-817.52,1277.69h1.85v16.9h6.58v1.81h-8.43V1277.69z"/>
		<path class="st1" d="M-805.35,1277.69h2.71l6.47,16.27l6.48-16.27h2.69v18.72h-1.76v-16.53l-6.58,16.53h-1.63l-6.58-16.53v16.53
			h-1.79V1277.69z"/>
		<path class="st1" d="M-782.69,1277.69h9.74v1.79h-7.91v6.63h7.88v1.79h-7.88v6.72h7.88v1.79h-9.72V1277.69z"/>
		<path class="st1" d="M-769.28,1277.69h5.03c2.22,0,3.93,0.51,5.14,1.52c1.21,1.01,1.81,2.44,1.81,4.29c0,1.52-0.43,2.8-1.29,3.85
			c-0.86,1.05-1.95,1.63-3.28,1.74l4.59,7.31h-2.24l-5.53-9.02h1.76c1.18,0,2.14-0.35,2.89-1.04c0.74-0.69,1.11-1.59,1.11-2.67
			c0-1.47-0.42-2.52-1.25-3.17s-2.24-0.97-4.23-0.97h-2.69v16.88h-1.84V1277.69z"/>
		<path class="st1" d="M-752.02,1271.38h1.95l-3.48,4.5h-1.18L-752.02,1271.38z M-754.06,1277.69h1.84v18.72h-1.84V1277.69z"/>
		<path class="st1" d="M-742.33,1277.69h2.25l7.21,18.72h-1.98l-2.21-5.87h-8.34l-2.24,5.87h-1.93L-742.33,1277.69z
			 M-741.25,1279.45l-3.52,9.4h7.08L-741.25,1279.45z"/>
	</g>
</g>
<rect x="-155.47" y="810.53" class="st0" height="20"/>
<g>
	<path d="M-1434.87,84.42V5.41h15.36v79.02H-1434.87z"/>
	<path d="M-1389.93,84.42h-16.2V5.41h15.62l35.07,50.47V5.41h16.14v79.02h-15.33l-35.3-51.99V84.42z"/>
	<path d="M-1282.96,84.42h-42.55V5.41h42.55V19.3h-27.19v18.02h27.19V51h-27.19v19.54h27.19V84.42z"/>
	<path d="M-1394.92,173.01h-40V93.99h15.36v65.12h24.64V173.01z"/>
	<path d="M-1389.94,93.99h15.47v45.59v0.87c0,6.62,0.77,11.3,2.31,14.03c1.54,2.73,4.1,4.1,7.68,4.1c3.65,0,6.24-1.38,7.76-4.15
		s2.28-7.72,2.28-14.84V93.99h15.41v50.14c0,5.72-0.31,9.94-0.92,12.67c-0.62,2.73-1.63,5.13-3.04,7.19
		c-2.53,3.65-5.51,6.33-8.93,8.03c-3.42,1.7-7.61,2.55-12.56,2.55c-4.88,0-9.05-0.85-12.51-2.55c-3.46-1.7-6.43-4.38-8.93-8.03
		c-1.41-2.06-2.43-4.38-3.07-6.95c-0.63-2.57-0.95-6.51-0.95-11.83v-1.09V93.99z"/>
	<path d="M-1325.64,173.01V93.99h11.78h8.41c7.09,0,12.83,1.96,17.23,5.89c4.4,3.93,6.59,9,6.59,15.22c0,3.69-0.7,6.84-2.09,9.44
		c-1.39,2.6-3.41,4.58-6.05,5.92c3.83,1.08,6.88,3.3,9.14,6.65c2.26,3.35,3.39,7.28,3.39,11.8c0,4.12-0.82,7.91-2.47,11.34
		c-1.65,3.44-3.97,6.21-6.97,8.3c-2.28,1.59-4.8,2.73-7.57,3.42c-2.77,0.69-6.65,1.03-11.64,1.03H-1325.64z M-1310.77,125.8h1.79
		c4.34,0,7.53-0.79,9.58-2.36c2.04-1.57,3.07-4.02,3.07-7.35c0-2.71-1.01-4.76-3.04-6.13c-2.03-1.37-5.05-2.06-9.06-2.06h-2.33
		V125.8z M-1310.77,159.12h4.67c4.67,0,8.11-0.79,10.34-2.36c2.23-1.57,3.34-4.01,3.34-7.3c0-3.54-1.17-6.25-3.5-8.11
		c-2.33-1.86-5.73-2.79-10.18-2.79h-4.67V159.12z"/>
	<g>
		<path d="M-1515.24,182.73h2.77l8.89,23.08h-2.44l-2.73-7.24h-10.29l-2.76,7.24h-2.38L-1515.24,182.73z M-1513.91,184.9
			l-4.34,11.59h8.73L-1513.91,184.9z"/>
		<path d="M-1499.52,182.73h2.28v20.84h8.12v2.24h-10.4V182.73z"/>
		<path d="M-1484.51,182.73h3.34l7.97,20.07l7.99-20.07h3.31v23.08h-2.17v-20.39l-8.12,20.39h-2.01l-8.12-20.39v20.39h-2.2V182.73z"
			/>
		<path d="M-1456.57,182.73h12.02v2.2h-9.75v8.18h9.72v2.2h-9.72v8.29h9.72v2.2h-11.98V182.73z"/>
		<path d="M-1440.04,182.73h6.2c2.74,0,4.85,0.62,6.34,1.87s2.24,3.01,2.24,5.29c0,1.87-0.53,3.45-1.59,4.75
			c-1.06,1.29-2.4,2.01-4.04,2.15l5.66,9.02h-2.76l-6.82-11.13h2.17c1.46,0,2.65-0.43,3.56-1.28c0.91-0.86,1.37-1.96,1.37-3.3
			c0-1.81-0.51-3.11-1.54-3.91c-1.03-0.8-2.76-1.2-5.22-1.2h-3.31v20.81h-2.27V182.73z"/>
		<path d="M-1418.75,174.95h2.41l-4.3,5.55h-1.46L-1418.75,174.95z M-1421.27,182.73h2.27v23.08h-2.27V182.73z"/>
		<path d="M-1406.8,182.73h2.77l8.89,23.08h-2.44l-2.73-7.24h-10.29l-2.76,7.24h-2.38L-1406.8,182.73z M-1405.47,184.9l-4.34,11.59
			h8.73L-1405.47,184.9z"/>
	</g>
	<path d="M-1460.07,132.19c0.04,0.56,0.09,1.12,0.09,1.69c0,13.74-11.18,24.91-24.91,24.91s-24.91-11.18-24.91-24.91
		s11.18-24.91,24.91-24.91c0.94,0,1.86,0.06,2.77,0.16l11.61-11.61c-4.46-1.77-9.3-2.77-14.38-2.77
		c-21.58,0-39.13,17.56-39.13,39.13s17.56,39.13,39.13,39.13c21.58,0,39.13-17.56,39.13-39.13c0-4.76-0.9-9.31-2.46-13.53
		L-1460.07,132.19z"/>
	<path d="M-1465.68,61.34c-0.38,0.43-0.74,0.87-1.15,1.28c-9.88,9.88-25.95,9.88-35.83,0c-9.88-9.88-9.88-25.95,0-35.83
		c9.88-9.88,25.95-9.88,35.83,0c0.67,0.67,1.29,1.38,1.88,2.11h16.7c-1.93-4.48-4.69-8.68-8.35-12.34
		c-15.52-15.52-40.76-15.52-56.28,0c-15.52,15.52-15.52,40.76,0,56.28c15.52,15.52,40.76,15.52,56.28,0
		c3.42-3.42,6.05-7.34,7.96-11.5H-1465.68z"/>
</g>
<g>
	<path class="st1" d="M-1450.93,1210.53v-79.02h15.36v79.02H-1450.93z"/>
	<path class="st1" d="M-1405.99,1210.53h-16.2v-79.02h15.62l35.07,50.47v-50.47h16.14v79.02h-15.33l-35.3-51.99V1210.53z"/>
	<path class="st1" d="M-1299.02,1210.53h-42.55v-79.02h42.55v13.89h-27.19v18.02h27.19v13.68h-27.19v19.54h27.19V1210.53z"/>
	<path class="st1" d="M-1410.98,1299.12h-40v-79.02h15.36v65.12h24.64V1299.12z"/>
	<path class="st1" d="M-1406,1220.1h15.47v45.59v0.87c0,6.62,0.77,11.3,2.31,14.03c1.54,2.73,4.1,4.1,7.68,4.1
		c3.65,0,6.24-1.38,7.76-4.15c1.52-2.77,2.28-7.72,2.28-14.84v-45.59h15.41v50.14c0,5.72-0.31,9.94-0.92,12.67
		c-0.62,2.73-1.63,5.13-3.04,7.19c-2.53,3.65-5.51,6.33-8.93,8.03c-3.42,1.7-7.61,2.55-12.56,2.55c-4.88,0-9.05-0.85-12.51-2.55
		c-3.46-1.7-6.43-4.38-8.93-8.03c-1.41-2.06-2.43-4.38-3.07-6.95c-0.63-2.57-0.95-6.51-0.95-11.83v-1.09V1220.1z"/>
	<path class="st1" d="M-1341.7,1299.12v-79.02h11.78h8.41c7.09,0,12.83,1.96,17.23,5.89c4.4,3.93,6.59,9,6.59,15.22
		c0,3.69-0.7,6.84-2.09,9.44c-1.39,2.6-3.41,4.58-6.05,5.92c3.83,1.08,6.88,3.3,9.14,6.65c2.26,3.35,3.39,7.28,3.39,11.8
		c0,4.12-0.82,7.91-2.47,11.34c-1.65,3.44-3.97,6.21-6.97,8.3c-2.28,1.59-4.8,2.73-7.57,3.42c-2.77,0.69-6.65,1.03-11.64,1.03
		H-1341.7z M-1326.83,1251.9h1.79c4.34,0,7.53-0.79,9.58-2.36c2.04-1.57,3.07-4.02,3.07-7.35c0-2.71-1.01-4.76-3.04-6.13
		s-5.05-2.06-9.06-2.06h-2.33V1251.9z M-1326.83,1285.22h4.67c4.67,0,8.11-0.79,10.34-2.36c2.23-1.57,3.34-4.01,3.34-7.3
		c0-3.55-1.17-6.25-3.5-8.11c-2.33-1.86-5.73-2.79-10.18-2.79h-4.67V1285.22z"/>
	<g>
		<path class="st1" d="M-1531.3,1308.84h2.77l8.89,23.08h-2.44l-2.73-7.24h-10.29l-2.76,7.24h-2.38L-1531.3,1308.84z
			 M-1529.97,1311.01l-4.34,11.59h8.73L-1529.97,1311.01z"/>
		<path class="st1" d="M-1515.58,1308.84h2.28v20.84h8.12v2.24h-10.4V1308.84z"/>
		<path class="st1" d="M-1500.57,1308.84h3.34l7.97,20.07l7.99-20.07h3.31v23.08h-2.17v-20.39l-8.12,20.39h-2.01l-8.12-20.39v20.39
			h-2.2V1308.84z"/>
		<path class="st1" d="M-1472.63,1308.84h12.02v2.2h-9.75v8.18h9.72v2.2h-9.72v8.29h9.72v2.2h-11.98V1308.84z"/>
		<path class="st1" d="M-1456.1,1308.84h6.2c2.74,0,4.85,0.62,6.34,1.87s2.24,3.01,2.24,5.29c0,1.87-0.53,3.45-1.59,4.75
			c-1.06,1.29-2.4,2.01-4.04,2.15l5.66,9.02h-2.76l-6.82-11.13h2.17c1.46,0,2.65-0.43,3.56-1.28c0.91-0.86,1.37-1.96,1.37-3.3
			c0-1.81-0.51-3.11-1.54-3.91c-1.03-0.8-2.76-1.2-5.22-1.2h-3.31v20.81h-2.27V1308.84z"/>
		<path class="st1" d="M-1434.81,1301.05h2.41l-4.3,5.55h-1.46L-1434.81,1301.05z M-1437.33,1308.84h2.27v23.08h-2.27V1308.84z"/>
		<path class="st1" d="M-1422.86,1308.84h2.77l8.89,23.08h-2.44l-2.73-7.24h-10.29l-2.76,7.24h-2.38L-1422.86,1308.84z
			 M-1421.53,1311.01l-4.34,11.59h8.73L-1421.53,1311.01z"/>
	</g>
	<path class="st1" d="M-1476.13,1258.29c0.04,0.56,0.09,1.12,0.09,1.69c0,13.74-11.18,24.91-24.91,24.91s-24.91-11.18-24.91-24.91
		s11.18-24.91,24.91-24.91c0.94,0,1.86,0.06,2.77,0.16l11.61-11.61c-4.46-1.77-9.3-2.77-14.38-2.77
		c-21.58,0-39.13,17.56-39.13,39.13c0,21.58,17.56,39.13,39.13,39.13s39.13-17.56,39.13-39.13c0-4.76-0.9-9.31-2.46-13.53
		L-1476.13,1258.29z"/>
	<path class="st1" d="M-1481.74,1187.44c-0.38,0.43-0.74,0.87-1.15,1.28c-9.88,9.88-25.95,9.88-35.83,0
		c-9.88-9.88-9.88-25.95,0-35.83c9.88-9.88,25.95-9.88,35.83,0c0.68,0.68,1.29,1.38,1.88,2.11h16.7c-1.93-4.48-4.69-8.68-8.35-12.34
		c-15.52-15.52-40.76-15.52-56.28,0c-15.52,15.52-15.52,40.76,0,56.28c15.52,15.52,40.76,15.52,56.28,0
		c3.42-3.42,6.05-7.34,7.96-11.5H-1481.74z"/>
</g>
<g>
	<g>
		<path d="M87.15,27.93H66c-2.54-3.39-5.53-5.94-8.97-7.63c-3.43-1.7-7.35-2.54-11.75-2.54c-7.47,0-13.82,2.75-19.05,8.24
			c-5.23,5.49-7.85,12.14-7.85,19.93c0,7.88,2.63,14.54,7.91,19.99c5.27,5.45,11.68,8.18,19.24,8.18c4.12,0,7.92-0.83,11.39-2.48
			c3.47-1.66,6.3-3.98,8.48-6.97h20.96c-4.08,9.01-9.53,15.77-16.36,20.3c-6.83,4.52-15.03,6.79-24.6,6.79
			c-12.64,0-23.27-4.45-31.87-13.36c-8.6-8.91-12.9-19.92-12.9-33.05c0-6.14,1.17-11.98,3.51-17.51
			c2.34-5.53,5.76-10.54,10.24-15.03c4.24-4.2,8.98-7.38,14.21-9.54C33.82,1.08,39.47,0,45.52,0c9.61,0,17.84,2.29,24.69,6.88
			C77.06,11.46,82.7,18.48,87.15,27.93z"/>
		<path d="M119.86,89.97h-16.9V1.76h16.3l36.59,56.35V1.76h16.84v88.21H156.7l-36.84-58.04V89.97z"/>
	</g>
	<g>
		<path d="M147.83,188.84h-44.65v-88.21h17.15v72.7h27.51V188.84z"/>
		<path d="M156.55,188.84v-88.21h13.15h9.39c7.92,0,14.33,2.19,19.24,6.57c4.91,4.38,7.36,10.05,7.36,16.99
			c0,4.12-0.78,7.63-2.33,10.54s-3.81,5.11-6.75,6.6c4.28,1.21,7.68,3.69,10.21,7.42c2.52,3.74,3.79,8.13,3.79,13.18
			c0,4.6-0.92,8.83-2.76,12.66c-1.84,3.84-4.43,6.93-7.79,9.27c-2.54,1.78-5.36,3.05-8.45,3.82c-3.09,0.77-7.42,1.15-13,1.15H156.55
			z M173.15,136.13h2c4.85,0,8.41-0.88,10.69-2.63c2.28-1.76,3.42-4.49,3.42-8.21c0-3.03-1.13-5.31-3.39-6.85
			c-2.26-1.53-5.63-2.3-10.12-2.3h-2.61V136.13z M173.15,173.33h5.21c5.21,0,9.06-0.88,11.54-2.64c2.48-1.76,3.73-4.47,3.73-8.15
			c0-3.96-1.3-6.98-3.91-9.06c-2.6-2.08-6.39-3.12-11.36-3.12h-5.21V173.33z"/>
	</g>
	<g>
		<path d="M62.36,103.11l-14.95,14.95c-4.2-0.6-8.11-0.29-11.74,0.94c-3.63,1.23-7,3.4-10.11,6.51c-5.28,5.28-7.83,11.72-7.65,19.3
			c0.18,7.58,3.03,14.13,8.55,19.64c5.57,5.57,12.15,8.42,19.73,8.55c7.58,0.13,14.04-2.48,19.38-7.82c2.91-2.91,5.01-6.18,6.3-9.81
			c1.29-3.63,1.64-7.27,1.07-10.92l14.82-14.82c3.48,9.25,4.41,17.89,2.79,25.92c-1.63,8.03-5.83,15.42-12.6,22.19
			c-8.94,8.94-19.6,13.3-31.98,13.09c-12.38-0.21-23.21-4.96-32.5-14.25c-4.34-4.34-7.64-9.3-9.9-14.87S0.2,150.2,0.2,143.86
			c0.03-5.97,1.13-11.57,3.3-16.79c2.17-5.23,5.4-9.98,9.68-14.27c6.8-6.8,14.24-11,22.32-12.59
			C43.58,98.6,52.53,99.57,62.36,103.11z"/>
	</g>
	<g>
		<path d="M16.41,206.06H14.4c-0.77-1.07-1.62-1.85-2.56-2.34c-0.93-0.49-2.01-0.74-3.21-0.74c-1.91,0-3.53,0.7-4.88,2.11
			c-1.34,1.41-2.01,3.1-2.01,5.09c0,2,0.67,3.7,2.03,5.11c1.35,1.41,2.97,2.11,4.86,2.11c1.18,0,2.24-0.24,3.18-0.73
			c0.94-0.49,1.76-1.22,2.47-2.2h1.99c-0.79,1.47-1.84,2.6-3.15,3.38S10.32,219,8.63,219c-2.44,0-4.49-0.86-6.14-2.58
			S0,212.58,0,210.05c0-1.19,0.23-2.32,0.68-3.39c0.45-1.07,1.11-2.03,1.97-2.88c0.82-0.82,1.73-1.43,2.73-1.85
			c1-0.41,2.08-0.62,3.25-0.62c1.69,0,3.21,0.41,4.55,1.23C14.53,203.37,15.61,204.54,16.41,206.06z"/>
		<path d="M19.23,201.65h1.67v17h-1.67V201.65z"/>
		<path d="M24.61,201.65h2.01l9.18,14.97v-14.97h1.61v17h-2.02l-9.18-15v15h-1.6V201.65z"/>
		<path d="M41.29,201.65h8.85v1.62h-7.18v6.03h7.16v1.62h-7.16v6.11h7.16v1.62h-8.83V201.65z"/>
		<path d="M69.4,206.06h-2.01c-0.77-1.07-1.62-1.85-2.56-2.34c-0.93-0.49-2.01-0.74-3.21-0.74c-1.91,0-3.53,0.7-4.88,2.11
			c-1.34,1.41-2.01,3.1-2.01,5.09c0,2,0.67,3.7,2.03,5.11c1.35,1.41,2.97,2.11,4.86,2.11c1.18,0,2.24-0.24,3.18-0.73
			c0.94-0.49,1.76-1.22,2.47-2.2h1.99c-0.79,1.47-1.84,2.6-3.15,3.38s-2.8,1.17-4.49,1.17c-2.44,0-4.49-0.86-6.14-2.58
			s-2.49-3.84-2.49-6.37c0-1.19,0.23-2.32,0.68-3.39c0.45-1.07,1.11-2.03,1.97-2.88c0.82-0.82,1.73-1.43,2.73-1.85
			c1-0.41,2.08-0.62,3.25-0.62c1.69,0,3.21,0.41,4.55,1.23C67.52,203.37,68.6,204.54,69.4,206.06z"/>
		<path d="M72.55,201.65h1.68v15.36h5.98v1.65h-7.66V201.65z"/>
		<path d="M83.22,201.65h1.67v10.23c0,1.1,0.05,1.89,0.15,2.39c0.1,0.5,0.25,0.92,0.47,1.28c0.35,0.55,0.8,0.98,1.34,1.27
			s1.14,0.44,1.8,0.44c0.67,0,1.28-0.15,1.83-0.45c0.55-0.3,0.99-0.72,1.33-1.27c0.23-0.37,0.38-0.79,0.48-1.29
			c0.09-0.49,0.14-1.28,0.14-2.38v-10.23h1.66v10.82c0,2.2-0.44,3.85-1.31,4.93c-0.88,1.08-2.21,1.62-4,1.62
			c-1.9,0-3.3-0.53-4.2-1.59c-0.9-1.06-1.35-2.71-1.35-4.96V201.65z"/>
		<path d="M98.24,201.65h3.63c1.59,0,2.84,0.41,3.76,1.24s1.38,1.94,1.38,3.35c0,0.72-0.14,1.36-0.43,1.92s-0.71,1-1.26,1.34
			c0.8,0.26,1.44,0.75,1.9,1.45c0.47,0.71,0.7,1.54,0.7,2.49c0,1.71-0.5,3.01-1.49,3.89c-0.99,0.88-2.47,1.32-4.42,1.32h-3.77
			V201.65z M99.84,203.28V209h1.03c1.64,0,2.79-0.23,3.45-0.68c0.65-0.45,0.98-1.2,0.98-2.24c0-0.93-0.32-1.63-0.95-2.1
			c-0.63-0.47-1.58-0.7-2.84-0.7H99.84z M99.84,210.62v6.41h2.37c1.37,0,2.39-0.26,3.05-0.78c0.66-0.52,0.99-1.32,0.99-2.41
			c0-1.07-0.34-1.88-1.02-2.42c-0.68-0.54-1.69-0.81-3.05-0.81H99.84z"/>
		<path d="M122.75,201.65h2.04l6.55,17h-1.8l-2.01-5.34h-7.58l-2.03,5.34h-1.75L122.75,201.65z M123.73,203.26l-3.2,8.54h6.43
			L123.73,203.26z"/>
		<path d="M134.33,201.65h1.68v15.36h5.98v1.65h-7.66V201.65z"/>
		<path d="M145.39,201.65h2.46l5.87,14.79l5.89-14.79h2.44v17h-1.6v-15.02l-5.98,15.02h-1.48l-5.98-15.02v15.02h-1.62V201.65z"/>
		<path d="M165.97,201.65h8.85v1.62h-7.18v6.03h7.16v1.62h-7.16v6.11h7.16v1.62h-8.83V201.65z"/>
		<path d="M178.15,201.65h4.57c2.02,0,3.57,0.46,4.67,1.38c1.1,0.92,1.65,2.22,1.65,3.9c0,1.38-0.39,2.54-1.17,3.5
			c-0.78,0.95-1.77,1.48-2.98,1.58l4.17,6.65h-2.03l-5.02-8.2h1.6c1.07,0,1.95-0.32,2.62-0.95s1.01-1.44,1.01-2.43
			c0-1.33-0.38-2.29-1.13-2.88c-0.75-0.59-2.04-0.88-3.84-0.88h-2.44v15.33h-1.67V201.65z"/>
		<path d="M193.83,195.92h1.78l-3.17,4.09h-1.07L193.83,195.92z M191.98,201.65h1.67v17h-1.67V201.65z"/>
		<path d="M202.64,201.65h2.04l6.55,17h-1.8l-2.01-5.34h-7.58l-2.03,5.34h-1.75L202.64,201.65z M203.62,203.26l-3.2,8.54h6.43
			L203.62,203.26z"/>
	</g>
</g>
<g>
	<g>
		<path class="st1" d="M123.7,1149.89h-21.14c-2.54-3.39-5.53-5.94-8.97-7.63c-3.43-1.7-7.35-2.54-11.75-2.54
			c-7.47,0-13.82,2.75-19.05,8.24c-5.23,5.49-7.85,12.14-7.85,19.93c0,7.88,2.63,14.54,7.91,19.99c5.27,5.45,11.68,8.18,19.24,8.18
			c4.12,0,7.92-0.83,11.39-2.48c3.47-1.66,6.3-3.98,8.48-6.97h20.96c-4.08,9.01-9.53,15.77-16.36,20.3
			c-6.83,4.52-15.03,6.79-24.6,6.79c-12.64,0-23.27-4.45-31.87-13.36c-8.6-8.91-12.9-19.92-12.9-33.05c0-6.14,1.17-11.98,3.51-17.51
			c2.34-5.53,5.76-10.54,10.24-15.03c4.24-4.2,8.98-7.38,14.21-9.54c5.23-2.16,10.88-3.24,16.93-3.24c9.61,0,17.84,2.29,24.69,6.88
			C113.62,1133.42,119.26,1140.44,123.7,1149.89z"/>
		<path class="st1" d="M156.42,1211.93h-16.9v-88.21h16.3l36.59,56.35v-56.35h16.84v88.21h-15.99l-36.84-58.04V1211.93z"/>
	</g>
	<g>
		<path class="st1" d="M184.39,1310.8h-44.65v-88.21h17.15v72.7h27.51V1310.8z"/>
		<path class="st1" d="M193.1,1310.8v-88.21h13.15h9.39c7.92,0,14.33,2.19,19.24,6.57c4.91,4.38,7.36,10.05,7.36,16.99
			c0,4.12-0.78,7.63-2.33,10.54s-3.81,5.11-6.75,6.6c4.28,1.21,7.68,3.69,10.21,7.42c2.52,3.74,3.79,8.13,3.79,13.18
			c0,4.6-0.92,8.83-2.76,12.66c-1.84,3.84-4.43,6.93-7.79,9.27c-2.54,1.78-5.36,3.05-8.45,3.82c-3.09,0.77-7.42,1.15-13,1.15H193.1z
			 M209.71,1258.09h2c4.85,0,8.41-0.88,10.69-2.63c2.28-1.76,3.42-4.49,3.42-8.21c0-3.03-1.13-5.31-3.39-6.85
			c-2.26-1.53-5.63-2.3-10.12-2.3h-2.61V1258.09z M209.71,1295.29h5.21c5.21,0,9.06-0.88,11.54-2.64c2.48-1.76,3.73-4.47,3.73-8.15
			c0-3.96-1.3-6.98-3.91-9.06c-2.6-2.08-6.39-3.12-11.36-3.12h-5.21V1295.29z"/>
	</g>
	<g>
		<path class="st1" d="M98.92,1225.07l-14.95,14.95c-4.2-0.6-8.11-0.29-11.74,0.94c-3.63,1.23-7,3.4-10.11,6.51
			c-5.28,5.28-7.83,11.72-7.65,19.3c0.18,7.58,3.03,14.13,8.55,19.64c5.57,5.57,12.15,8.42,19.73,8.55
			c7.58,0.13,14.04-2.48,19.38-7.82c2.91-2.91,5.01-6.18,6.3-9.81c1.29-3.63,1.64-7.27,1.07-10.92l14.82-14.82
			c3.48,9.25,4.41,17.89,2.79,25.92c-1.63,8.03-5.83,15.42-12.6,22.19c-8.94,8.94-19.6,13.3-31.98,13.09
			c-12.38-0.21-23.21-4.96-32.5-14.25c-4.34-4.34-7.64-9.3-9.9-14.87s-3.38-11.52-3.38-17.87c0.03-5.97,1.13-11.57,3.3-16.79
			c2.17-5.23,5.4-9.98,9.68-14.27c6.8-6.8,14.24-11,22.32-12.59C80.14,1220.56,89.09,1221.53,98.92,1225.07z"/>
	</g>
	<g>
		<path class="st1" d="M52.97,1328.02h-2.01c-0.77-1.07-1.62-1.85-2.56-2.34c-0.93-0.49-2.01-0.74-3.21-0.74
			c-1.91,0-3.53,0.7-4.88,2.11c-1.34,1.41-2.01,3.1-2.01,5.09c0,2,0.67,3.7,2.03,5.11c1.35,1.41,2.97,2.11,4.86,2.11
			c1.18,0,2.24-0.24,3.18-0.73c0.94-0.49,1.76-1.22,2.47-2.2h1.99c-0.79,1.47-1.84,2.6-3.15,3.38s-2.8,1.17-4.49,1.17
			c-2.44,0-4.49-0.86-6.14-2.58s-2.49-3.84-2.49-6.37c0-1.19,0.23-2.32,0.68-3.39c0.45-1.07,1.11-2.03,1.97-2.88
			c0.82-0.82,1.73-1.43,2.73-1.85c1-0.41,2.08-0.62,3.25-0.62c1.69,0,3.21,0.41,4.55,1.23C51.09,1325.33,52.16,1326.5,52.97,1328.02
			z"/>
		<path class="st1" d="M55.79,1323.62h1.67v17h-1.67V1323.62z"/>
		<path class="st1" d="M61.17,1323.62h2.01l9.18,14.97v-14.97h1.61v17h-2.02l-9.18-15v15h-1.6V1323.62z"/>
		<path class="st1" d="M77.85,1323.62h8.85v1.62h-7.18v6.03h7.16v1.62h-7.16v6.11h7.16v1.62h-8.83V1323.62z"/>
		<path class="st1" d="M105.96,1328.02h-2.01c-0.77-1.07-1.62-1.85-2.56-2.34c-0.93-0.49-2.01-0.74-3.21-0.74
			c-1.91,0-3.53,0.7-4.88,2.11c-1.34,1.41-2.01,3.1-2.01,5.09c0,2,0.67,3.7,2.03,5.11c1.35,1.41,2.97,2.11,4.86,2.11
			c1.18,0,2.24-0.24,3.18-0.73c0.94-0.49,1.76-1.22,2.47-2.2h1.99c-0.79,1.47-1.84,2.6-3.15,3.38s-2.8,1.17-4.49,1.17
			c-2.44,0-4.49-0.86-6.14-2.58s-2.49-3.84-2.49-6.37c0-1.19,0.23-2.32,0.68-3.39c0.45-1.07,1.11-2.03,1.97-2.88
			c0.82-0.82,1.73-1.43,2.73-1.85c1-0.41,2.08-0.62,3.25-0.62c1.69,0,3.21,0.41,4.55,1.23
			C104.08,1325.33,105.15,1326.5,105.96,1328.02z"/>
		<path class="st1" d="M109.1,1323.62h1.68v15.36h5.98v1.65h-7.66V1323.62z"/>
		<path class="st1" d="M119.78,1323.62h1.67v10.23c0,1.1,0.05,1.89,0.15,2.39c0.1,0.5,0.25,0.92,0.47,1.28
			c0.35,0.55,0.8,0.98,1.34,1.27s1.14,0.44,1.8,0.44c0.67,0,1.28-0.15,1.83-0.45c0.55-0.3,0.99-0.72,1.33-1.27
			c0.23-0.37,0.38-0.79,0.48-1.29c0.09-0.49,0.14-1.28,0.14-2.38v-10.23h1.66v10.82c0,2.2-0.44,3.85-1.31,4.93
			c-0.88,1.08-2.21,1.62-4,1.62c-1.9,0-3.3-0.53-4.2-1.59c-0.9-1.06-1.35-2.71-1.35-4.96V1323.62z"/>
		<path class="st1" d="M134.79,1323.62h3.63c1.59,0,2.84,0.41,3.76,1.24s1.38,1.94,1.38,3.35c0,0.72-0.14,1.36-0.43,1.92
			s-0.71,1-1.26,1.34c0.8,0.26,1.44,0.75,1.9,1.45c0.47,0.71,0.7,1.54,0.7,2.49c0,1.71-0.5,3.01-1.49,3.89
			c-0.99,0.88-2.47,1.32-4.42,1.32h-3.77V1323.62z M136.39,1325.24v5.72h1.03c1.64,0,2.79-0.23,3.45-0.68
			c0.65-0.45,0.98-1.2,0.98-2.24c0-0.93-0.32-1.63-0.95-2.1c-0.63-0.47-1.58-0.7-2.84-0.7H136.39z M136.39,1332.58v6.41h2.37
			c1.37,0,2.39-0.26,3.05-0.78c0.66-0.52,0.99-1.32,0.99-2.41c0-1.07-0.34-1.88-1.02-2.42c-0.68-0.54-1.69-0.81-3.05-0.81H136.39z"
			/>
		<path class="st1" d="M159.3,1323.62h2.04l6.55,17h-1.8l-2.01-5.34h-7.58l-2.03,5.34h-1.75L159.3,1323.62z M160.28,1325.22
			l-3.2,8.54h6.43L160.28,1325.22z"/>
		<path class="st1" d="M170.89,1323.62h1.68v15.36h5.98v1.65h-7.66V1323.62z"/>
		<path class="st1" d="M181.94,1323.62h2.46l5.87,14.79l5.89-14.79h2.44v17h-1.6v-15.02l-5.98,15.02h-1.48l-5.98-15.02v15.02h-1.62
			V1323.62z"/>
		<path class="st1" d="M202.53,1323.62h8.85v1.62h-7.18v6.03h7.16v1.62h-7.16v6.11h7.16v1.62h-8.83V1323.62z"/>
		<path class="st1" d="M214.71,1323.62h4.57c2.02,0,3.57,0.46,4.67,1.38c1.1,0.92,1.65,2.22,1.65,3.9c0,1.38-0.39,2.54-1.17,3.5
			c-0.78,0.95-1.77,1.48-2.98,1.58l4.17,6.65h-2.03l-5.02-8.2h1.6c1.07,0,1.95-0.32,2.62-0.95s1.01-1.44,1.01-2.43
			c0-1.33-0.38-2.29-1.13-2.88c-0.75-0.59-2.04-0.88-3.84-0.88h-2.44v15.33h-1.67V1323.62z"/>
		<path class="st1" d="M230.39,1317.88h1.78l-3.17,4.09h-1.07L230.39,1317.88z M228.54,1323.62h1.67v17h-1.67V1323.62z"/>
		<path class="st1" d="M239.19,1323.62h2.04l6.55,17h-1.8l-2.01-5.34h-7.58l-2.03,5.34h-1.75L239.19,1323.62z M240.18,1325.22
			l-3.2,8.54h6.43L240.18,1325.22z"/>
	</g>
</g>
</svg>
